<?xml version="1.0" encoding="UTF-8" standalone="no"?>
<!DOCTYPE svg PUBLIC "-//W3C//DTD SVG 1.1//EN" "http://www.w3.org/Graphics/SVG/1.1/DTD/svg11.dtd">
<svg xmlns="http://www.w3.org/2000/svg" version="1.1" viewBox="0.00 0.00 200.00 200.00" width="200.00" height="200.00">
<path fill="#0198c8" d="
  M 98.63 60.42
  C 98.75 60.05 98.86 59.69 98.97 59.33
  C 99.08 58.98 99.32 58.79 99.69 58.78
  C 107.80 58.59 112.80 62.05 117.41 68.08
  C 117.79 68.58 118.40 68.86 119.03 68.80
  C 125.16 68.27 130.73 70.95 133.75 76.21
  C 135.77 79.73 136.38 83.30 135.59 86.92
  C 134.04 93.95 127.71 99.37 120.33 99.30
  C 116.60 99.26 112.89 99.31 109.19 99.44
  C 108.81 99.46 108.52 99.10 108.60 98.73
  L 111.21 86.99
  C 111.28 86.67 111.45 86.39 111.70 86.18
  C 112.81 85.22 114.22 84.79 115.03 83.47
  C 119.16 76.76 109.20 71.02 105.55 78.31
  C 105.34 78.71 105.02 78.92 104.57 78.94
  L 95.54 79.31
  C 95.21 79.32 94.96 79.20 94.77 78.93
  C 93.96 77.76 93.70 76.62 94.01 75.49
  C 95.39 70.54 96.93 65.51 98.63 60.42
  Z"
/>
<path fill="#0198c8" d="
  M 90.95 85.82
  C 91.86 85.69 92.43 85.14 93.07 84.55
  C 93.33 84.32 93.66 84.18 94.00 84.16
  C 97.69 84.01 101.14 83.63 104.36 83.02
  C 105.97 82.72 107.36 84.18 106.98 85.77
  L 103.82 99.03
  C 103.76 99.25 103.56 99.41 103.33 99.40
  C 96.88 99.26 90.00 99.25 82.68 99.36
  C 78.67 99.43 75.58 98.96 73.42 97.96
  C 66.00 94.53 61.78 85.97 65.28 78.29
  C 68.43 71.37 73.77 68.20 81.30 68.78
  C 81.67 68.81 82.03 68.67 82.30 68.42
  C 82.93 67.81 83.50 67.16 84.01 66.45
  C 86.28 63.29 89.77 60.95 93.41 59.50
  C 93.96 59.28 94.15 59.46 93.98 60.03
  L 89.77 74.06
  C 89.68 74.37 89.48 74.60 89.19 74.75
  C 88.55 75.06 87.90 75.36 87.25 75.67
  C 81.36 78.39 84.35 86.80 90.95 85.82
  Z"
/>
<path fill="#040b07" fill-opacity="0.996" d="
  M 137.55 111.04
  C 138.49 110.87 139.60 110.80 140.52 111.02
  C 142.92 111.58 144.33 113.14 144.76 115.71
  C 146.41 125.68 132.88 125.22 132.89 120.20
  C 132.91 116.36 132.91 112.22 132.89 107.77
  C 132.89 107.20 133.17 106.95 133.74 107.01
  L 136.03 107.25
  C 136.65 107.32 136.94 107.66 136.89 108.28
  L 136.74 110.32
  C 136.71 110.77 137.11 111.12 137.55 111.04
  Z
  M 136.73 114.84
  L 136.78 119.62
  C 136.78 120.10 137.17 120.48 137.64 120.47
  L 138.60 120.46
  C 139.91 120.45 140.95 119.47 140.94 118.28
  L 140.92 116.10
  C 140.91 114.91 139.84 113.95 138.54 113.96
  L 137.58 113.97
  C 137.10 113.98 136.72 114.37 136.73 114.84
  Z"
/>
<path fill="#040b07" fill-opacity="0.996" d="
  M 62.12 117.86
  C 61.08 117.21 59.90 116.68 58.57 116.27
  C 57.21 115.84 55.91 114.92 55.71 113.40
  C 55.26 109.89 56.76 107.85 60.22 107.29
  C 62.11 106.99 63.94 107.24 65.71 108.03
  C 65.93 108.13 66.04 108.30 66.03 108.55
  L 65.92 111.35
  C 65.91 111.62 65.78 111.69 65.55 111.54
  C 64.10 110.64 62.59 110.27 61.01 110.43
  C 60.00 110.54 59.59 111.13 59.77 112.21
  C 59.88 112.92 60.43 113.49 61.13 113.63
  C 64.31 114.29 68.13 115.61 66.91 119.83
  C 65.61 124.35 59.54 124.27 56.06 122.38
  C 55.98 122.34 55.93 122.27 55.92 122.18
  C 55.74 121.03 55.80 119.96 56.11 118.97
  C 56.12 118.92 56.18 118.90 56.22 118.93
  C 58.32 120.36 60.22 120.74 61.92 120.07
  C 63.44 119.46 63.51 118.73 62.12 117.86
  Z"
/>
<path fill="#040b07" fill-opacity="0.996" d="
  M 114.13 113.33
  L 114.05 108.22
  C 114.04 107.85 114.36 107.54 114.73 107.55
  L 117.34 107.64
  C 117.70 107.65 117.98 107.94 117.98 108.30
  L 117.97 122.52
  C 117.97 122.88 117.67 123.18 117.31 123.17
  L 114.67 123.16
  C 114.31 123.15 114.01 122.85 114.02 122.49
  L 114.08 117.73
  C 114.09 117.36 113.79 117.06 113.42 117.07
  L 109.36 117.10
  C 108.99 117.11 108.69 117.42 108.71 117.79
  L 108.91 122.34
  C 108.93 122.71 108.63 123.03 108.26 123.03
  L 105.60 123.09
  C 105.23 123.09 104.93 122.80 104.92 122.43
  L 104.76 108.11
  C 104.75 107.71 105.09 107.40 105.48 107.44
  L 108.14 107.70
  C 108.49 107.73 108.76 108.04 108.74 108.39
  L 108.49 113.32
  C 108.48 113.70 108.78 114.02 109.16 114.02
  L 113.47 114.00
  C 113.84 114.00 114.14 113.70 114.13 113.33
  Z"
/>
<path fill="#040b07" fill-opacity="0.996" d="
  M 73.89 117.70
  C 74.32 117.61 74.58 117.35 74.69 116.90
  C 75.08 115.28 75.54 113.69 76.07 112.13
  C 76.31 111.41 76.81 111.04 77.57 111.03
  L 78.98 111.01
  C 79.86 111.00 80.15 111.40 79.84 112.22
  C 77.42 118.79 75.82 122.97 75.03 124.77
  C 74.04 127.04 72.31 128.02 69.84 127.71
  C 69.25 127.64 68.97 127.31 68.99 126.72
  L 69.03 125.28
  C 69.04 124.87 69.40 124.56 69.81 124.60
  C 70.66 124.70 71.30 124.46 71.72 123.87
  C 72.08 123.37 72.07 122.69 71.70 121.84
  C 70.40 118.83 69.12 115.73 67.85 112.54
  C 67.41 111.43 67.79 110.90 68.99 110.97
  L 70.18 111.05
  C 71.23 111.11 71.88 111.65 72.13 112.68
  L 73.21 117.27
  C 73.28 117.58 73.58 117.77 73.89 117.70
  Z"
/>
<path fill="#040b07" fill-opacity="0.996" d="
  M 84.25 115.22
  L 84.38 122.00
  C 84.39 122.77 84.02 123.16 83.25 123.17
  L 81.83 123.18
  C 81.09 123.19 80.72 122.83 80.72 122.08
  L 80.78 113.08
  C 80.79 112.69 80.96 112.41 81.30 112.23
  C 83.97 110.82 86.50 110.49 88.90 111.24
  C 91.09 111.93 92.11 113.49 91.97 115.92
  C 91.85 117.98 91.87 120.00 92.04 121.97
  C 92.11 122.75 91.75 123.13 90.96 123.10
  L 89.31 123.03
  C 88.66 123.00 88.15 122.47 88.14 121.81
  L 88.10 115.36
  C 88.09 114.55 87.68 114.12 86.87 114.07
  L 85.53 113.99
  C 84.66 113.94 84.23 114.35 84.25 115.22
  Z"
/>
<path fill="#040b07" fill-opacity="0.996" d="
  M 98.91 120.19
  C 100.02 120.32 101.15 120.24 102.32 119.95
  C 102.68 119.86 102.90 120.00 102.98 120.36
  C 103.12 120.98 103.11 121.58 102.94 122.17
  C 102.79 122.66 102.47 122.98 101.96 123.15
  C 98.99 124.14 96.60 123.60 94.79 121.53
  C 92.75 119.18 92.53 116.63 94.13 113.87
  C 95.64 111.25 98.24 110.37 101.93 111.22
  C 102.63 111.39 102.98 111.83 102.97 112.55
  L 102.97 113.94
  C 102.96 114.44 102.73 114.60 102.26 114.43
  C 98.97 113.21 96.36 114.35 97.05 118.43
  C 97.23 119.48 97.85 120.07 98.91 120.19
  Z"
/>
<path fill="#040b07" fill-opacity="0.996" d="
  M 125.41 120.31
  C 125.64 120.30 125.79 120.30 125.87 120.30
  C 127.02 120.30 127.61 119.78 127.62 118.75
  L 127.71 111.98
  C 127.72 111.28 128.07 110.95 128.77 110.98
  L 130.02 111.04
  C 130.65 111.07 130.96 111.40 130.97 112.03
  C 130.99 114.56 131.77 120.33 129.64 122.10
  C 127.11 124.21 124.42 124.26 121.57 122.23
  C 120.69 121.60 120.01 120.46 119.99 119.35
  C 119.95 116.74 119.96 114.29 120.02 112.00
  C 120.04 111.21 120.45 110.86 121.24 110.97
  L 122.77 111.18
  C 123.54 111.29 123.91 111.73 123.90 112.50
  L 123.85 118.74
  C 123.84 119.79 124.36 120.31 125.41 120.31
  Z"
/>
</svg>
